<?xml version="1.0" encoding="UTF-8"?>
<svg viewBox="0 0 584 195" xmlns="http://www.w3.org/2000/svg">
<g>
<title>Veem it and it's paid</title>
<rect x="-1" y="-1" width="586" height="197" fill="transparent"/>
<g x="0" y="0" display="none" overflow="visible">
<rect x="2" y="2" width="580" height="400" fill="url(#gridpattern)" stroke-width="0"/>
</g>
</g>
<g>
<title>Logo</title>
<g stroke="null">
<g transform="matrix(2.0163 0 0 2.0163 -20413 -14111)" stroke="null">
<path d="m10158 7033.9c-1.6-2.8-16.5-29.5-16.5-29.5-2.5-3.9-7.8-4.9-11.6-2.3-3.8 2.7-4.7 8-2.1 11.8l20.6 36.9c1.7 2.4 4.4 3.7 7.2 3.6 2.8 0.1 5.6-1.1 7.2-3.6l8.7-15.6c-2.7 3.3-7.5 4.2-10.9 1.7-0.9-0.7-2.1-2.2-2.6-3z" fill="#FF8200"/>
<path d="m10231 7034.1h-28.5c4.7 7.2 13.6 8.2 20.4 4.5 3.4-2.1 7.9-0.9 10 2.6 2 3.5 0.9 8-2.6 10.1-4.6 2.7-9.9 4.1-15.3 4.1-12.3 0-22-7-26.2-15.8-3.3-6.9-3.2-15.3-0.3-22.3 3.7-9.1 13.1-16.7 25.2-16.7 13.8 0 25.4 10.3 27.1 24 0.6 6.3-3.7 9.5-9.8 9.5zm-6.5-12.2c-1-4.1-5.5-7.9-10.9-7.9s-10 3.9-10.9 7.9h21.8z" fill="#0076F7"/>
<path d="m10289 7034.1h-28.5c4.7 7.2 13.6 8.2 20.4 4.5 3.4-2.1 7.9-0.9 10 2.6 2 3.5 0.9 8-2.6 10.1-4.6 2.7-9.9 4.1-15.3 4.1-12.3 0-22-7-26.2-15.8-3.3-6.9-3.2-15.3-0.3-22.3 3.7-9.1 13.1-16.7 25.2-16.7 13.8 0 25.4 10.3 27.1 24 0.6 6.3-3.7 9.5-9.8 9.5zm-6.5-12.2c-1-4.1-5.5-7.9-10.9-7.9s-10 3.9-10.9 7.9h21.8z" fill="#0076F7"/>
<path d="m10366 7003l-0.6-0.3c-0.6-0.2-1.2-0.5-1.8-0.7-0.1 0-1.5-0.4-2.2-0.6-0.1 0-1.6-0.3-2.3-0.4-0.5-0.1-2.1-0.1-2.4-0.1h-0.1c-5.6 0-10.9 2.1-14.9 5.4-4-3.3-9.3-5.4-14.9-5.4h-0.1c-0.8 0-3 0.1-4.7 0.5-1 0.2-2.6 0.6-4.1 1.3l-0.6 0.3c-8.2 3.6-13.9 11.8-13.9 21.3v21.7c0 1.1 0.2 2.1 0.6 3l0.3 0.6c0.1 0.2 0.2 0.5 0.4 0.7 0.2 0.3 0.4 0.7 0.7 1 0 0.1 0.1 0.1 0.1 0.2 1 1.2 2.3 2.1 3.7 2.6 0.2 0.1 0.3 0.1 0.5 0.1 0.3 0.1 0.5 0.1 0.8 0.2 0.4 0.1 1 0.1 1.5 0.1 4.6 0 8.5-3.8 8.5-8.5v-21.7c0-3.6 2.8-6.4 6.4-6.5 3.5 0 6.4 2.9 6.4 6.5v21.7c0 4.7 3.9 8.5 8.5 8.5h0.1c4.6 0 8.5-3.8 8.5-8.5v-21.7c0-3.6 2.9-6.4 6.4-6.5 3.6 0 6.4 2.9 6.4 6.5v21.7c0 4.7 3.9 8.5 8.5 8.5 0.5 0 1.1-0.1 1.5-0.1 0.3 0 0.5-0.1 0.8-0.2 0.2 0 0.3-0.1 0.5-0.1 1.5-0.5 2.7-1.4 3.7-2.6 0-0.1 0.1-0.1 0.1-0.2 0.3-0.3 0.5-0.6 0.7-1 0.1-0.2 0.3-0.4 0.4-0.7l0.3-0.6c0.2-0.4 0.3-0.8 0.4-1.2v-0.2c0.1-0.5 0.2-1.1 0.2-1.6v-21.7c-0.4-9.5-6.2-17.7-14.3-21.3z" fill="#0076F7"/>
<path d="m10181 7002.1c-3.9-2.6-9.2-1.6-11.8 2.3l-12.8 22.9c1.3 2.3 2.3 4 2.7 4.7 0 0 1.4 2.2 2.3 2.9 4.9 3.4 9.7-0.2 11.2-2.1l10.6-18.9c2.7-3.9 1.7-9.2-2.2-11.8z" fill="#0076F7"/>
<path d="m10374 7004.8c0-0.6 0.1-1.1 0.3-1.6s0.5-0.9 0.9-1.3 0.8-0.6 1.3-0.8 1-0.3 1.5-0.3 1.1 0.1 1.5 0.3c0.5 0.2 0.9 0.5 1.3 0.8 0.4 0.4 0.7 0.8 0.9 1.3s0.3 1 0.3 1.6-0.1 1.1-0.3 1.6-0.5 0.9-0.9 1.3-0.8 0.6-1.3 0.8-1 0.3-1.5 0.3-1.1-0.1-1.5-0.3c-0.5-0.2-0.9-0.5-1.3-0.8-0.4-0.4-0.7-0.8-0.9-1.3s-0.3-1-0.3-1.6zm0.7 0c0 0.5 0.1 0.9 0.3 1.4 0.2 0.4 0.4 0.8 0.7 1.1s0.6 0.5 1 0.7 0.8 0.3 1.3 0.3 0.9-0.1 1.3-0.3 0.7-0.4 1-0.7 0.5-0.7 0.7-1.1 0.3-0.9 0.3-1.4-0.1-0.9-0.3-1.4c-0.2-0.4-0.4-0.8-0.7-1.1s-0.6-0.5-1-0.7-0.8-0.3-1.3-0.3-0.9 0.1-1.3 0.3-0.8 0.4-1 0.7c-0.3 0.3-0.5 0.7-0.7 1.1-0.2 0.5-0.3 0.9-0.3 1.4zm1.8-2.3h1.8c1.1 0 1.6 0.4 1.6 1.3 0 0.4-0.1 0.7-0.4 0.9-0.2 0.2-0.5 0.3-0.9 0.4l1.3 2.1h-0.8l-1.3-2h-0.8v2h-0.7v-4.7h0.2zm0.7 2h0.7 0.5c0.2 0 0.3 0 0.4-0.1s0.2-0.1 0.3-0.2 0.1-0.3 0.1-0.4c0-0.2 0-0.3-0.1-0.4s-0.1-0.2-0.2-0.2c-0.1-0.1-0.2-0.1-0.3-0.1h-0.4-0.9v1.4h-0.1z" fill="#0076F7" stroke="null"/>
<g fill="#72808A">
<path d="m10189 7072l4.4 12.4 4.4-12.4h3.3l-6.4 16.3h-2.7l-6.4-16.3h3.4z"/>
<path d="m10207 7088.5c-1 0-1.8-0.2-2.6-0.5s-1.4-0.8-2-1.3-1-1.2-1.3-2-0.4-1.5-0.4-2.4 0.1-1.7 0.4-2.4c0.3-0.8 0.7-1.4 1.3-2s1.2-1 2-1.4c0.8-0.3 1.7-0.5 2.7-0.5s1.9 0.2 2.6 0.5c0.8 0.3 1.4 0.8 2 1.4 0.5 0.6 1 1.2 1.2 2 0.3 0.8 0.4 1.5 0.4 2.3v0.6c0 0.2 0 0.3-0.1 0.5h-9.3c0 0.5 0.2 0.9 0.3 1.3 0.2 0.4 0.4 0.7 0.7 0.9 0.3 0.3 0.6 0.5 1 0.6s0.8 0.2 1.2 0.2c0.6 0 1.2-0.1 1.7-0.4s0.9-0.7 1.1-1.2l2.6 0.7c-0.4 0.9-1.2 1.7-2.1 2.3-0.9 0.5-2.1 0.8-3.4 0.8zm3.1-7.3c-0.1-0.9-0.4-1.6-1-2.2-0.6-0.5-1.3-0.8-2.2-0.8-0.4 0-0.8 0.1-1.2 0.2s-0.7 0.3-1 0.6-0.5 0.6-0.7 0.9c-0.2 0.4-0.3 0.8-0.3 1.2h6.4v0.1z"/>
<path d="m10221 7088.5c-1 0-1.8-0.2-2.6-0.5s-1.4-0.8-2-1.3-1-1.2-1.3-2-0.4-1.5-0.4-2.4 0.1-1.7 0.4-2.4c0.3-0.8 0.7-1.4 1.3-2s1.2-1 2-1.4c0.8-0.3 1.7-0.5 2.7-0.5s1.9 0.2 2.6 0.5c0.8 0.3 1.4 0.8 2 1.4 0.5 0.6 1 1.2 1.2 2 0.3 0.8 0.4 1.5 0.4 2.3v0.6c0 0.2 0 0.3-0.1 0.5h-9.3c0 0.5 0.2 0.9 0.3 1.3 0.2 0.4 0.4 0.7 0.7 0.9 0.3 0.3 0.6 0.5 1 0.6s0.8 0.2 1.2 0.2c0.6 0 1.2-0.1 1.7-0.4s0.9-0.7 1.1-1.2l2.6 0.7c-0.4 0.9-1.2 1.7-2.1 2.3-0.9 0.5-2.1 0.8-3.4 0.8zm3.1-7.3c-0.1-0.9-0.4-1.6-1-2.2-0.6-0.5-1.3-0.8-2.2-0.8-0.4 0-0.8 0.1-1.2 0.2s-0.7 0.3-1 0.6-0.5 0.6-0.7 0.9c-0.2 0.4-0.3 0.8-0.3 1.2h6.4v0.1z"/>
<path d="m10248 7088.3h-3.1v-6.8c0-1-0.2-1.7-0.5-2.1s-0.8-0.7-1.4-0.7-1.2 0.2-1.7 0.7-0.9 1.1-1.2 1.8v7h-3.1v-6.8c0-1-0.2-1.7-0.5-2.1s-0.8-0.7-1.4-0.7-1.2 0.2-1.7 0.7-0.9 1.1-1.2 1.8v7h-3.1v-12.1h2.8v2.2c0.4-0.8 1.1-1.4 1.8-1.8s1.7-0.6 2.7-0.6 1.8 0.2 2.3 0.7c0.6 0.5 0.9 1.1 1.1 1.8 0.5-0.8 1.1-1.5 1.9-1.9s1.6-0.7 2.6-0.7c0.7 0 1.3 0.1 1.8 0.4s0.8 0.6 1.1 1.1 0.4 1 0.5 1.5c0.1 0.6 0.1 1.1 0.1 1.7v7.9h0.2z"/>
<path d="m10257 7074.6v-3.1h3.1v3.1h-3.1zm0 13.7v-12.1h3.1v12.1h-3.1z"/>
<path d="m10271 7087.7c-0.4 0.2-0.9 0.4-1.5 0.6s-1.2 0.3-1.9 0.3c-0.4 0-0.8-0.1-1.2-0.2s-0.7-0.3-1-0.5-0.5-0.5-0.7-0.9-0.3-0.8-0.3-1.4v-6.9h-1.6v-2.4h1.6v-3.9h3.1v3.9h2.5v2.4h-2.5v5.9c0 0.4 0.1 0.7 0.3 0.9s0.5 0.3 0.8 0.3 0.6-0.1 0.9-0.2 0.6-0.2 0.7-0.3l0.8 2.4z"/>
<path d="m10282 7088.5c-0.6 0-1.1-0.1-1.6-0.3s-0.9-0.5-1.3-0.8-0.7-0.7-0.9-1.2-0.3-1-0.3-1.5c0-0.6 0.1-1.1 0.4-1.6s0.6-0.9 1.1-1.2 1-0.6 1.6-0.8 1.3-0.3 2.1-0.3c0.5 0 1.1 0 1.6 0.1s1 0.2 1.4 0.4v-0.7c0-0.8-0.2-1.4-0.7-1.8s-1.1-0.6-2-0.6c-0.6 0-1.3 0.1-1.9 0.3s-1.2 0.6-1.9 1l-0.9-2c1.5-1 3.2-1.5 5-1.5 1.7 0 3.1 0.4 4 1.3 1 0.9 1.4 2.1 1.4 3.7v3.7c0 0.3 0.1 0.6 0.2 0.7s0.3 0.2 0.6 0.2v2.6c-0.5 0.1-1 0.2-1.4 0.2-0.6 0-1-0.1-1.3-0.4s-0.5-0.6-0.6-1l-0.1-0.7c-0.5 0.7-1.2 1.2-2 1.6s-1.6 0.6-2.5 0.6zm0.9-2.2c0.5 0 1-0.1 1.5-0.3s0.8-0.4 1.1-0.7 0.5-0.6 0.5-0.9v-1.4l-1.2-0.3c-0.4-0.1-0.8-0.1-1.2-0.1-0.8 0-1.4 0.2-2 0.5s-0.8 0.8-0.8 1.4c0 0.5 0.2 1 0.6 1.3s0.9 0.5 1.5 0.5z"/>
<path d="m10303 7088.3h-3.1v-6.8c0-1-0.2-1.7-0.5-2.1s-0.8-0.7-1.4-0.7c-0.3 0-0.6 0.1-0.9 0.2s-0.6 0.3-0.9 0.5-0.5 0.5-0.8 0.8c-0.2 0.3-0.4 0.6-0.5 1v7h-3.1v-12.1h2.8v2.2c0.4-0.8 1.1-1.4 1.9-1.8s1.8-0.6 2.9-0.6c0.8 0 1.4 0.1 1.8 0.4 0.5 0.3 0.8 0.6 1.1 1.1s0.4 1 0.5 1.5c0.1 0.6 0.1 1.1 0.1 1.7v7.7h0.1z"/>
<path d="m10311 7088.5c-0.8 0-1.6-0.2-2.3-0.5s-1.3-0.8-1.8-1.3-0.9-1.2-1.2-2-0.4-1.6-0.4-2.4 0.1-1.7 0.4-2.4c0.3-0.8 0.6-1.4 1.1-2s1-1 1.7-1.3 1.4-0.5 2.2-0.5c0.9 0 1.7 0.2 2.4 0.6s1.3 1 1.7 1.7v-6.9h3.1v13.2c0 0.3 0.1 0.6 0.2 0.7s0.3 0.2 0.6 0.2v2.6c-0.5 0.1-1 0.2-1.3 0.2-0.6 0-1-0.1-1.4-0.4s-0.6-0.6-0.6-1.1l-0.1-0.8c-0.4 0.8-1 1.3-1.8 1.7-0.9 0.5-1.6 0.7-2.5 0.7zm0.8-2.6c0.3 0 0.6 0 0.9-0.1s0.6-0.2 0.9-0.4 0.5-0.4 0.7-0.6 0.4-0.5 0.5-0.8v-2.9c-0.1-0.3-0.3-0.6-0.5-0.9s-0.5-0.5-0.8-0.7-0.6-0.4-0.9-0.5-0.6-0.2-0.9-0.2c-0.5 0-0.9 0.1-1.3 0.3s-0.7 0.5-1 0.8-0.5 0.7-0.6 1.2c-0.2 0.4-0.2 0.9-0.2 1.4s0.1 1 0.3 1.4 0.4 0.8 0.7 1.1 0.6 0.6 1 0.8c0.3 0 0.7 0.1 1.2 0.1z"/>
<path d="m10327 7074.6v-3.1h3.1v3.1h-3.1zm0 13.7v-12.1h3.1v12.1h-3.1z"/>
<path d="m10341 7087.7c-0.4 0.2-0.9 0.4-1.5 0.6s-1.2 0.3-1.9 0.3c-0.4 0-0.8-0.1-1.2-0.2s-0.7-0.3-1-0.5-0.5-0.5-0.7-0.9-0.3-0.8-0.3-1.4v-6.9h-1.6v-2.4h1.6v-3.9h3.1v3.9h2.5v2.4h-2.5v5.9c0 0.4 0.1 0.7 0.3 0.9s0.5 0.3 0.8 0.3 0.6-0.1 0.9-0.2 0.6-0.2 0.7-0.3l0.8 2.4z"/>
<path d="m10343 7077.3l0.5-2.8h-0.9v-3.1h3.1v3.2l-0.8 2.8h-1.9v-0.1z"/>
<path d="m10350 7088.5c-1 0-2-0.2-3-0.5s-1.8-0.8-2.5-1.4l1.2-1.9c0.7 0.5 1.5 0.9 2.2 1.2s1.4 0.4 2.1 0.4c0.6 0 1.1-0.1 1.4-0.3 0.4-0.2 0.5-0.6 0.5-1s-0.2-0.7-0.6-0.9-1.1-0.4-2-0.7c-0.8-0.2-1.4-0.4-2-0.6s-1-0.4-1.3-0.7-0.6-0.5-0.7-0.9c-0.2-0.3-0.2-0.7-0.2-1.2 0-0.6 0.1-1.2 0.4-1.7 0.2-0.5 0.6-0.9 1-1.3 0.4-0.3 0.9-0.6 1.5-0.8s1.2-0.3 1.9-0.3c0.9 0 1.8 0.1 2.5 0.4s1.5 0.7 2.2 1.3l-1.2 1.9c-0.6-0.5-1.2-0.8-1.8-1s-1.1-0.3-1.7-0.3c-0.5 0-1 0.1-1.3 0.3-0.4 0.2-0.5 0.6-0.5 1 0 0.2 0 0.4 0.1 0.5s0.2 0.3 0.4 0.4 0.4 0.2 0.7 0.3 0.7 0.2 1.1 0.3c0.8 0.2 1.5 0.4 2.1 0.6s1.1 0.5 1.4 0.7 0.7 0.6 0.8 1c0.2 0.4 0.3 0.8 0.3 1.3 0 1.2-0.4 2.1-1.3 2.8s-2.2 1.1-3.7 1.1z"/>
<path d="m10371 7088.5c-1 0-1.8-0.2-2.5-0.6s-1.3-1-1.7-1.7v7h-3.1v-17h2.7v2.1c0.4-0.7 1-1.3 1.7-1.7s1.5-0.6 2.4-0.6c0.8 0 1.6 0.2 2.3 0.5s1.3 0.8 1.8 1.3c0.5 0.6 0.9 1.2 1.2 2s0.4 1.6 0.4 2.4c0 0.9-0.1 1.7-0.4 2.5s-0.6 1.4-1.1 2-1 1-1.7 1.3c-0.5 0.4-1.2 0.5-2 0.5zm-1-2.6c0.5 0 0.9-0.1 1.3-0.3s0.7-0.5 1-0.8 0.5-0.7 0.6-1.2c0.2-0.4 0.2-0.9 0.2-1.4s-0.1-1-0.3-1.4-0.4-0.8-0.7-1.1-0.7-0.6-1.1-0.8-0.8-0.3-1.3-0.3c-0.3 0-0.6 0-0.9 0.1s-0.6 0.2-0.9 0.4-0.5 0.4-0.7 0.6-0.4 0.5-0.5 0.8v2.8c0.3 0.7 0.7 1.3 1.3 1.7s1.3 0.9 2 0.9z"/>
<path d="m10381 7088.5c-0.6 0-1.1-0.1-1.6-0.3s-0.9-0.5-1.3-0.8-0.7-0.7-0.9-1.2-0.3-1-0.3-1.5c0-0.6 0.1-1.1 0.4-1.6s0.6-0.9 1.1-1.2 1-0.6 1.6-0.8 1.3-0.3 2.1-0.3c0.5 0 1.1 0 1.6 0.1s1 0.2 1.4 0.4v-0.7c0-0.8-0.2-1.4-0.7-1.8s-1.1-0.6-2-0.6c-0.6 0-1.3 0.1-1.9 0.3s-1.2 0.6-1.9 1l-0.9-2c1.5-1 3.2-1.5 5-1.5 1.7 0 3.1 0.4 4 1.3 1 0.9 1.4 2.1 1.4 3.7v3.7c0 0.3 0.1 0.6 0.2 0.7s0.3 0.2 0.6 0.2v2.6c-0.5 0.1-1 0.2-1.4 0.2-0.6 0-1-0.1-1.3-0.4s-0.5-0.6-0.6-1l-0.1-0.7c-0.5 0.7-1.2 1.2-2 1.6s-1.6 0.6-2.5 0.6zm0.9-2.2c0.5 0 1-0.1 1.5-0.3s0.8-0.4 1.1-0.7 0.5-0.6 0.5-0.9v-1.4l-1.2-0.3c-0.4-0.1-0.8-0.1-1.2-0.1-0.8 0-1.4 0.2-2 0.5s-0.8 0.8-0.8 1.4c0 0.5 0.2 1 0.6 1.3s0.9 0.5 1.5 0.5z"/>
<path d="m10392 7074.6v-3.1h3.1v3.1h-3.1zm0 13.7v-12.1h3.1v12.1h-3.1z"/>
<path d="m10403 7088.5c-0.8 0-1.6-0.2-2.3-0.5s-1.3-0.8-1.8-1.3-0.9-1.2-1.2-2-0.4-1.6-0.4-2.4 0.1-1.7 0.4-2.4c0.3-0.8 0.6-1.4 1.1-2s1-1 1.7-1.3 1.4-0.5 2.2-0.5c0.9 0 1.7 0.2 2.4 0.6s1.3 1 1.7 1.7v-6.9h3.1v13.2c0 0.3 0.1 0.6 0.2 0.7s0.3 0.2 0.6 0.2v2.6c-0.5 0.1-1 0.2-1.3 0.2-0.6 0-1-0.1-1.4-0.4s-0.6-0.6-0.6-1.1l-0.1-0.8c-0.4 0.8-1 1.3-1.8 1.7-0.9 0.5-1.7 0.7-2.5 0.7zm0.8-2.6c0.3 0 0.6 0 0.9-0.1s0.6-0.2 0.9-0.4 0.5-0.4 0.7-0.6 0.4-0.5 0.5-0.8v-2.9c-0.1-0.3-0.3-0.6-0.5-0.9s-0.5-0.5-0.8-0.7-0.6-0.4-0.9-0.5-0.6-0.2-0.9-0.2c-0.5 0-0.9 0.1-1.3 0.3s-0.7 0.5-1 0.8-0.5 0.7-0.6 1.2c-0.2 0.4-0.2 0.9-0.2 1.4s0.1 1 0.3 1.4 0.4 0.8 0.7 1.1 0.6 0.6 1 0.8c0.3 0 0.7 0.1 1.2 0.1z"/>
</g>
</g>
</g>
</g>
</svg>
